HIERARCHY
ROOT root
{
	OFFSET	0	13.1	24.9
	CHANNELS 6  Xposition Yposition Zposition Xrotation Yrotation Zrotation
	JOINT spine_1
	{
		OFFSET	0	9.99999	0
		CHANNELS 3  Xrotation Yrotation Zrotation
		JOINT spine_2
		{
			OFFSET	0	112	-10
			CHANNELS 3  Xrotation Yrotation Zrotation
			JOINT spine_3
			{
				OFFSET	0	206.5	19.3
				CHANNELS 3  Xrotation Yrotation Zrotation
				JOINT spine_4
				{
					OFFSET	0	110.4	14.6
					CHANNELS 3  Xrotation Yrotation Zrotation
					JOINT neck_1
					{
						OFFSET	0	71.8	-50.3
						CHANNELS 3  Xrotation Yrotation Zrotation
						JOINT neck_2
						{
							OFFSET	0	86.2	-25.8
							CHANNELS 3  Xrotation Yrotation Zrotation
							JOINT head_ee
							{
								OFFSET	0	179.8	-8.7
								CHANNELS 3  Xrotation Yrotation Zrotation
								End Site
								{
									OFFSET	1	0	0
								}
							}
						}
					}
					JOINT left_clavicle
					{
						OFFSET	-43.2	22.4	-70.8
						CHANNELS 3  Xrotation Yrotation Zrotation
						JOINT left_shoulder
						{
							OFFSET	-93.9	-5.79999	48.7
							CHANNELS 3  Xrotation Yrotation Zrotation
							JOINT left_elbow
							{
								OFFSET	-291.4	-30.8	15.2
								CHANNELS 3  Xrotation Yrotation Zrotation
								JOINT left_lowarm_twist
								{
									OFFSET	-110.7	-3.89999	13.6
									CHANNELS 3  Xrotation Yrotation Zrotation
									JOINT left_hand
									{
										OFFSET	-110.7	-3.89999	13.6
										CHANNELS 3  Xrotation Yrotation Zrotation
										JOINT left_ee
										{
											OFFSET	-80.8	-5.10001	12.1
											CHANNELS 3  Xrotation Yrotation Zrotation
											End Site
											{
												OFFSET	1	0	0
											}
										}
									}
								}
							}
						}
					}
					JOINT right_clavicle
					{
						OFFSET	43.2	22.4	-70.8
						CHANNELS 3  Xrotation Yrotation Zrotation
						JOINT right_shoulder
						{
							OFFSET	93.9	-5.79999	48.7
							CHANNELS 3  Xrotation Yrotation Zrotation
							JOINT right_elbow
							{
								OFFSET	291.4	-30.8	15.2
								CHANNELS 3  Xrotation Yrotation Zrotation
								JOINT right_lowarm_twist
								{
									OFFSET	110.7	-3.89999	13.6
									CHANNELS 3  Xrotation Yrotation Zrotation
									JOINT right_hand
									{
										OFFSET	110.7	-3.89999	13.6
										CHANNELS 3  Xrotation Yrotation Zrotation
										JOINT right_ee
										{
											OFFSET	80.8	-5.10001	12.1
											CHANNELS 3  Xrotation Yrotation Zrotation
											End Site
											{
												OFFSET	1	0	0
											}
										}
									}
								}
							}
						}
					}
				}
			}
		}
	}
	JOINT left_hip
	{
		OFFSET	-82.8	-127.5	0.300001
		CHANNELS 3  Xrotation Yrotation Zrotation
		JOINT left_knee
		{
			OFFSET	-28.2	-396.7	2.2
			CHANNELS 3  Xrotation Yrotation Zrotation
			JOINT left_ankle
			{
				OFFSET	-11.7	-411.3	35.4
				CHANNELS 3  Xrotation Yrotation Zrotation
				JOINT left_toes
				{
					OFFSET	0	-60	-88.6
					CHANNELS 3  Xrotation Yrotation Zrotation
					JOINT left_foot_ee
					{
						OFFSET	-22.5	-16.5	-42.2
						CHANNELS 3  Xrotation Yrotation Zrotation
						End Site
						{
							OFFSET	1	0	0
						}
					}
				}
			}
		}
	}
	JOINT right_hip
	{
		OFFSET	82.8	-127.5	0.300001
		CHANNELS 3  Xrotation Yrotation Zrotation
		JOINT right_knee
		{
			OFFSET	28.2	-396.7	2.2
			CHANNELS 3  Xrotation Yrotation Zrotation
			JOINT right_ankle
			{
				OFFSET	11.7	-411.3	35.4
				CHANNELS 3  Xrotation Yrotation Zrotation
				JOINT right_toes
				{
					OFFSET	0	-60	-88.6
					CHANNELS 3  Xrotation Yrotation Zrotation
					JOINT right_foot_ee
					{
						OFFSET	22.5	-16.5	-42.2
						CHANNELS 3  Xrotation Yrotation Zrotation
						End Site
						{
							OFFSET	1	0	0
						}
					}
				}
			}
		}
	}
}
MOTION
Frames: 16
Frame Time: 0.02
1372.05 701.618 -1475.22 -6.17092006306 32.3476549145 6.78530819573 -1.26514 -0.435062 -1.60715 -1.26377 -0.331927 -1.63157 -1.25288 0.0547711 -1.66408 -1.25669 -0.20869 -1.65186 1.79622 12.5097 4.49196 2.08905 18.2762 5.9388 -0.0 0.0 -0.0 10.4539 -0.952132 20.6461 3.28322 -20.8806 49.0314 3.24269 -58.0832 1.80086 10.445 0.249281 -1.30913 1.33059 -18.2483 1.11079 -0.0 0.0 -0.0 8.89591 -10.1221 -16.8027 -21.5431 8.00777 -52.3325 0.566221 15.6684 -0.0779075 21.1239 -0.25448 2.67114 0.459945 -11.9471 -7.85887 0.0 0.0 0.0 -8.33603 31.4407 -5.12222 -8.58262 0.257084 1.29085 29.5561 -19.6956 -4.26567 18.29 -0.0 -0.0 -0.0 0.0 -0.0 31.9137 -0.345424 -3.7074 0.268696 0.0111575 0.0397238 -16.664 9.22301 -2.62904 3.19201 -0.0 -0.0 0.0 0.0 0.0 
1351.59879163 701.657 -1514.71255469 -6.89481802795 35.5144152749 6.39512793011 -1.44167 -0.410365 -1.26826 -1.44084 -0.328838 -1.2918 -1.43244 -0.0167062 -1.33288 -1.43485 -0.226982 -1.31352 3.88973 11.8917 1.64596 4.2766 19.1974 2.51793 -0.0 0.0 -0.0 10.0848 -1.48384 19.8978 1.05236 -20.2439 49.8111 3.43069 -59.5123 1.96168 12.7768 0.272089 -1.60607 1.12604 -20.9381 -1.44384 -0.0 0.0 -0.0 9.32648 -8.06394 -17.7792 -21.338 8.07182 -53.13 0.600329 16.5618 -0.087375 22.4905 -0.236827 2.8448 0.809743 -10.1648 -9.4335 0.0 0.0 0.0 -8.92238 31.1198 -5.36697 -9.09159 0.26622 1.36842 33.0824 -19.9243 -4.6677 18.0718 -0.0 -0.0 -0.0 0.0 -0.0 32.0089 0.878281 -3.26896 -2.71864 -0.102351 -0.40463 -16.9209 7.755 -2.64889 3.77217 -0.0 -0.0 0.0 0.0 0.0 
1343.04017662 700.871 -1540.62292993 -7.65721995475 35.8223483575 6.62882073734 -1.44405 -0.206723 -1.15494 -1.44331 -0.132817 -1.16575 -1.43991 0.144477 -1.16436 -1.4418 -0.0412123 -1.17256 5.06527 12.1696 0.395974 5.57835 20.5482 0.957714 -0.0 0.0 -0.0 9.31962 -2.13456 18.3256 -0.904626 -21.8705 49.5948 3.23541 -58.0255 1.79469 12.2155 0.267704 -1.53452 1.35824 -19.8168 0.591714 -0.0 0.0 -0.0 9.47752 -7.73891 -18.0933 -20.7817 8.3334 -53.8823 0.611875 16.8624 -0.0906953 22.5896 -0.235386 2.85738 0.775559 -10.7706 -9.44125 0.0 0.0 0.0 -8.67662 31.2861 -5.94151 -10.1962 0.283673 1.53701 30.9249 -19.5154 -4.41519 17.5501 -0.0 -0.0 -0.0 0.0 -0.0 31.5973 0.741964 -3.63371 -2.94358 -0.109956 -0.438314 -15.5886 8.57544 -2.44869 4.37413 -0.0 -0.0 0.0 0.0 0.0 
1343.81990261 700.871 -1540.9632483 -7.59277391099 35.1470793453 6.5178017964 -1.44405 -0.206723 -1.15494 -1.44331 -0.132817 -1.16575 -1.43991 0.144477 -1.16436 -1.4418 -0.0412123 -1.17256 5.06527 12.1696 0.395974 5.57835 20.5482 0.957714 -0.0 0.0 -0.0 9.31962 -2.13456 18.3256 -0.904626 -21.8705 49.5948 3.23541 -58.0255 1.79469 12.2155 0.267704 -1.53452 1.35824 -19.8168 0.591714 -0.0 0.0 -0.0 9.47752 -7.73891 -18.0933 -20.7817 8.3334 -53.8823 0.611875 16.8624 -0.0906953 22.5896 -0.235386 2.85738 0.775559 -10.7706 -9.44125 0.0 0.0 0.0 -8.67662 31.2861 -5.94151 -10.1962 0.283673 1.53701 30.9249 -19.5154 -4.41519 17.5501 -0.0 -0.0 -0.0 0.0 -0.0 31.5973 0.741964 -3.63371 -2.94358 -0.109956 -0.438314 -15.5886 8.57544 -2.44869 4.37413 -0.0 -0.0 0.0 0.0 0.0 
1320.99359133 710.958 -1588.92399447 -6.79508234806 37.7747500776 6.28739333467 -1.6442 -0.0572286 -1.10802 -1.64352 0.013389 -1.10941 -1.6432 0.277216 -1.07431 -1.6448 0.104081 -1.1046 3.47705 12.3183 1.08862 3.91432 20.4947 1.95187 -0.0 0.0 -0.0 9.71545 -3.34596 19.1833 -4.74668 -18.4948 48.6171 2.76306 -53.8384 1.40315 10.9734 0.255508 -1.37633 1.40405 -19.3516 1.10432 -0.0 0.0 -0.0 10.6033 -5.23309 -20.5108 -18.1277 8.57424 -54.7395 0.447585 12.5016 -0.0490252 23.5217 -0.220767 2.97555 0.791102 -10.1854 -9.32025 0.0 0.0 0.0 -6.30155 30.1598 -8.0153 -16.6605 0.32045 2.52765 28.4143 -12.9821 -3.93589 18.0722 -0.0 -0.0 -0.0 0.0 -0.0 29.3753 0.0852596 -4.39411 -6.47596 -0.211953 -0.970741 -11.6423 6.29633 -1.80071 6.036 -0.0 -0.0 0.0 0.0 0.0 
1323.33089651 710.958 -1589.94490654 -6.69061433527 36.6103885859 6.1145839152 -1.6442 -0.0572286 -1.10802 -1.64352 0.013389 -1.10941 -1.6432 0.277216 -1.07431 -1.6448 0.104081 -1.1046 3.47705 12.3183 1.08862 3.91432 20.4947 1.95187 -0.0 0.0 -0.0 9.71545 -3.34596 19.1833 -4.74668 -18.4948 48.6171 2.76306 -53.8384 1.40315 10.9734 0.255508 -1.37633 1.40405 -19.3516 1.10432 -0.0 0.0 -0.0 10.6033 -5.23309 -20.5108 -18.1277 8.57424 -54.7395 0.447585 12.5016 -0.0490252 23.5217 -0.220767 2.97555 0.791102 -10.1854 -9.32025 0.0 0.0 0.0 -6.30155 30.1598 -8.0153 -16.6605 0.32045 2.52765 28.4143 -12.9821 -3.93589 18.0722 -0.0 -0.0 -0.0 0.0 -0.0 29.3753 0.0852596 -4.39411 -6.47596 -0.211953 -0.970741 -11.6423 6.29633 -1.80071 6.036 -0.0 -0.0 0.0 0.0 0.0 
1284.1028348 715.796 -1638.71569693 6.86751053309 35.2095323852 1.37609012048 -5.49577 -0.227451 -1.83598 -5.4939 -0.110183 -1.84672 -5.48678 0.454107 -1.79343 -5.49123 0.165221 -1.84262 6.98101 14.9648 1.6339 7.75128 23.8458 2.20245 -0.0 0.0 -0.0 7.31058 -2.26989 14.2101 5.63714 -8.59901 58.8065 1.67677 -39.7106 0.605542 13.4718 0.276548 -1.69473 3.09619 -10.7697 16.528 -0.0 0.0 -0.0 11.4959 9.98865 -23.1425 -3.50402 10.3208 -54.608 0.216995 6.13548 -0.0116295 33.256 0.0457054 4.18893 0.408177 -13.2495 -8.02864 0.0 0.0 0.0 -18.4968 12.2191 -7.42437 -20.7027 0.286624 3.1468 -22.2673 14.7025 3.36784 -15.5271 0.0 0.0 -0.0 0.0 -0.0 15.484 -1.86351 -10.4313 -11.6705 -0.301898 -1.76249 2.80664 7.38502 0.423579 -29.3914 0.0 0.0 0.0 0.0 0.0 
1289.03078158 715.796 -1641.27226934 6.72883808605 33.5081410486 1.6217729497 -5.49577 -0.227451 -1.83598 -5.4939 -0.110183 -1.84672 -5.48678 0.454107 -1.79343 -5.49123 0.165221 -1.84262 6.98101 14.9648 1.6339 7.75128 23.8458 2.20245 -0.0 0.0 -0.0 7.31058 -2.26989 14.2101 5.63714 -8.59901 58.8065 1.67677 -39.7106 0.605542 13.4718 0.276548 -1.69473 3.09619 -10.7697 16.528 -0.0 0.0 -0.0 11.4959 9.98865 -23.1425 -3.50402 10.3208 -54.608 0.216995 6.13548 -0.0116295 33.256 0.0457054 4.18893 0.408177 -13.2495 -8.02864 0.0 0.0 0.0 -18.4968 12.2191 -7.42437 -20.7027 0.286624 3.1468 -22.2673 14.7025 3.36784 -15.5271 0.0 0.0 -0.0 0.0 -0.0 15.484 -1.86351 -10.4313 -11.6705 -0.301898 -1.76249 2.80664 7.38502 0.423579 -29.3914 0.0 0.0 0.0 0.0 0.0 
1276.9471545 716.697 -1658.50952692 6.2923288483 32.8508642817 1.84021614614 -5.47807 -0.128585 -1.70852 -5.47645 -0.0196227 -1.71324 -5.47297 0.499623 -1.63891 -5.47664 0.234557 -1.69722 6.27065 14.7208 1.63415 6.99041 23.5969 2.28924 -0.0 0.0 -0.0 7.31506 -1.2411 14.2215 2.38768 -8.71783 58.5868 1.65494 -39.3421 0.591646 12.8361 0.272512 -1.61363 3.12178 -12.581 15.8636 -0.0 0.0 -0.0 11.2679 8.45718 -22.6284 -1.18609 10.5164 -55.0512 0.414058 11.5915 -0.0420276 36.0617 0.160423 4.52871 0.187294 -12.3159 -6.26415 0.0 0.0 0.0 -16.5096 12.0812 -7.8971 -24.8704 0.206125 3.78115 -19.0652 21.4491 2.93742 -15.8062 0.0 0.0 -0.0 0.0 -0.0 14.2115 -2.5186 -10.2818 -12.0633 -0.305774 -1.82263 7.0408 7.8074 1.05063 -26.0558 0.0 0.0 0.0 0.0 0.0 
1244.76185356 717.588 -1694.34361903 10.0050858202 32.4952432008 -1.99893848485 -5.9834 0.110327 -1.0376 -5.98282 0.176125 -1.02848 -5.98518 0.487271 -0.922698 -5.98621 0.335441 -0.988066 5.81505 14.4025 2.07537 6.45254 22.7676 2.8615 -0.0 0.0 -0.0 7.84528 -1.33151 15.2913 0.768954 -8.79933 58.0998 0.999778 -26.3469 0.234013 11.328 0.259339 -1.42146 3.56465 -17.1602 16.7117 -0.0 0.0 -0.0 11.4198 9.37406 -22.9718 1.61467 15.0667 -56.3709 0.627064 17.2564 -0.0951512 36.9986 0.202427 4.6409 -0.172706 -13.3397 -4.39669 0.0 0.0 0.0 -10.2854 9.16862 -7.56727 -40.7279 -0.513721 6.09986 -18.5047 30.7397 2.99907 -13.6753 0.0 0.0 -0.0 0.0 -0.0 7.76737 -1.21264 -8.85241 -12.8955 -0.312624 -1.95013 11.7903 10.3986 1.75243 -22.0865 0.0 0.0 0.0 0.0 0.0 
1216.40913909 724.244 -1720.58672413 10.6596084867 34.1336767703 -2.84574321477 -5.97956 0.144529 -0.655514 -5.97934 0.185947 -0.64499 -5.9812 0.377278 -0.555205 -5.98152 0.284861 -0.607819 5.6672 13.4975 1.53199 6.24599 21.7229 2.23287 -0.0 0.0 -0.0 8.06053 -1.08264 15.7245 -1.23258 -8.20618 58.3226 0.551085 -15.2694 0.0738704 10.6168 0.251373 -1.33097 3.78436 -20.1254 16.6912 -0.0 0.0 -0.0 11.5218 11.8931 -23.1869 7.5491 16.2559 -56.9336 0.737236 20.0624 -0.13041 39.2979 0.313247 4.9132 -0.382755 -13.2238 -3.0292 0.0 0.0 0.0 -4.29272 4.70582 -8.85427 -49.6559 -1.19233 7.2927 -15.3909 29.8469 2.474 -11.6262 0.0 0.0 -0.0 0.0 -0.0 3.65963 -1.00197 -8.25455 -10.5682 -0.288819 -1.59386 13.1726 11.3765 1.95785 -17.5668 0.0 0.0 0.0 0.0 0.0 
1226.6711516 724.244 -1726.80278425 10.3793676972 31.8074435304 -2.33090017111 -5.97956 0.144529 -0.655514 -5.97934 0.185947 -0.64499 -5.9812 0.377278 -0.555205 -5.98152 0.284861 -0.607819 5.6672 13.4975 1.53199 6.24599 21.7229 2.23287 -0.0 0.0 -0.0 8.06053 -1.08264 15.7245 -1.23258 -8.20618 58.3226 0.551085 -15.2694 0.0738704 10.6168 0.251373 -1.33097 3.78436 -20.1254 16.6912 -0.0 0.0 -0.0 11.5218 11.8931 -23.1869 7.5491 16.2559 -56.9336 0.737236 20.0624 -0.13041 39.2979 0.313247 4.9132 -0.382755 -13.2238 -3.0292 0.0 0.0 0.0 -4.29272 4.70582 -8.85427 -49.6559 -1.19233 7.2927 -15.3909 29.8469 2.474 -11.6262 0.0 0.0 -0.0 0.0 -0.0 3.65963 -1.00197 -8.25455 -10.5682 -0.288819 -1.59386 13.1726 11.3765 1.95785 -17.5668 0.0 0.0 0.0 0.0 0.0 
1193.34033313 723.989 -1748.29252559 10.9218236057 35.2110619479 -2.98043807548 -5.73835 0.199376 -0.474091 -5.73826 0.229139 -0.460444 -5.74008 0.3594 -0.367894 -5.74015 0.296788 -0.420037 5.62563 12.5844 2.27959 6.07281 19.5058 3.09355 -0.0 0.0 -0.0 7.5678 -0.470519 14.7259 -4.26113 -7.4389 59.8586 0.31328 -8.82153 0.0241648 10.2526 0.246859 -1.28467 3.7831 -21.2606 16.0784 -0.0 0.0 -0.0 11.8453 14.2818 -23.8677 12.4955 17.722 -57.0916 0.733899 19.9788 -0.129268 40.8999 0.396893 5.10024 -0.537546 -13.1056 -2.00765 0.0 0.0 0.0 -0.363727 0.245244 -9.23993 -54.147 -1.6022 7.84986 -15.1588 29.1403 2.42488 -10.4076 0.0 0.0 -0.0 0.0 -0.0 0.122161 -0.311633 -8.40224 -9.41389 -0.271648 -1.41758 13.7441 13.0324 2.05908 -13.7555 0.0 0.0 0.0 0.0 0.0 
1183.74365789 728.92 -1764.61501284 10.9366447462 36.6912927747 -2.77315948322 -5.36643 0.165659 -0.485443 -5.36632 0.196213 -0.473918 -5.36788 0.329652 -0.392973 -5.368 0.263453 -0.440103 5.41242 11.9959 2.18912 5.81208 18.6167 2.99459 -0.0 0.0 -0.0 6.76578 2.42278 13.1249 -6.01209 -7.14973 61.8403 0.418681 -11.7173 0.0429615 9.99406 0.243477 -1.25182 3.7422 -21.6459 15.5945 -0.0 0.0 -0.0 11.9564 15.4852 -24.0804 14.1342 18.22 -57.0995 0.745636 20.2725 -0.133307 43.6662 0.553565 5.41753 -0.344992 -12.3725 -2.91532 0.0 0.0 0.0 1.31705 -4.77445 -8.17058 -51.7525 -1.3782 7.55675 -18.2565 30.3326 2.95004 -10.414 0.0 0.0 -0.0 0.0 -0.0 -1.72583 -1.12574 -9.45624 -7.69915 -0.239591 -1.15641 11.9463 11.355 1.78448 -11.8017 0.0 0.0 0.0 0.0 0.0 
1191.18832339 728.92 -1769.32509324 10.7371264855 35.2554070263 -2.43352857424 -5.36643 0.165659 -0.485443 -5.36632 0.196213 -0.473918 -5.36788 0.329652 -0.392973 -5.368 0.263453 -0.440103 5.41242 11.9959 2.18912 5.81208 18.6167 2.99459 -0.0 0.0 -0.0 6.76578 2.42278 13.1249 -6.01209 -7.14973 61.8403 0.418681 -11.7173 0.0429615 9.99406 0.243477 -1.25182 3.7422 -21.6459 15.5945 -0.0 0.0 -0.0 11.9564 15.4852 -24.0804 14.1342 18.22 -57.0995 0.745636 20.2725 -0.133307 43.6662 0.553565 5.41753 -0.344992 -12.3725 -2.91532 0.0 0.0 0.0 1.31705 -4.77445 -8.17058 -51.7525 -1.3782 7.55675 -18.2565 30.3326 2.95004 -10.414 0.0 0.0 -0.0 0.0 -0.0 -1.72583 -1.12574 -9.45624 -7.69915 -0.239591 -1.15641 11.9463 11.355 1.78448 -11.8017 0.0 0.0 0.0 0.0 0.0 
1179.25392569 730.341 -1780.02915106 11.1857376649 37.0062517933 -2.67026244192 -5.2455 0.195515 -0.471813 -5.24541 0.225141 -0.458416 -5.24719 0.3518 -0.370231 -5.24727 0.288914 -0.421144 4.72451 11.6638 2.30087 5.08134 18.0789 3.17491 -0.0 0.0 -0.0 5.75019 3.26684 11.1762 -6.85395 -7.73632 63.4159 0.441496 -12.3368 0.0477155 10.9322 0.255046 -1.37109 3.68358 -21.7841 15.1238 -0.0 0.0 -0.0 12.0407 16.7796 -24.2182 16.8279 18.5104 -57.0073 0.775194 21.0071 -0.143726 44.8421 0.62478 5.55007 -0.336349 -10.7439 -2.29507 0.0 0.0 0.0 4.13861 -6.87231 -8.04921 -49.0576 -1.14109 7.21614 -17.1459 30.0072 2.76257 -11.0325 0.0 0.0 -0.0 0.0 -0.0 -4.73476 -3.97842 -9.66455 -4.8512 -0.169119 -0.725085 10.7157 13.6064 1.63217 -10.5728 0.0 0.0 0.0 0.0 0.0 
